<svg xmlns="http://www.w3.org/2000/svg" width="512" height="512" viewBox="0 0 512 512">
  <defs>
    <linearGradient id="bg" x1="0" y1="0" x2="1" y2="1">
      <stop offset="0%" stop-color="#10b981"/>
      <stop offset="100%" stop-color="#0d9488"/>
    </linearGradient>
  </defs>
  <rect width="512" height="512" rx="100" fill="url(#bg)"/>
  <!-- Maple leaf -->
  <g transform="translate(256,230) scale(6)" fill="white">
    <path d="M0-25 L3-15 L12-18 L8-10 L15-5 L8-3 L10,5 L4,3 L0,12 L-4,3 L-10,5 L-8,-3 L-15,-5 L-8,-10 L-12,-18 L-3,-15 Z"/>
    <rect x="-1.5" y="10" width="3" height="10" rx="1"/>
  </g>
  <!-- Chart line -->
  <polyline points="90,390 150,350 190,365 250,310 310,330 370,290 420,305" fill="none" stroke="white" stroke-width="10" stroke-linecap="round" stroke-linejoin="round" opacity="0.8"/>
  <circle cx="420" cy="305" r="10" fill="white" opacity="0.8"/>
</svg>
