<svg xmlns="http://www.w3.org/2000/svg" width="192" height="192" viewBox="0 0 192 192">
  <defs>
    <linearGradient id="bg" x1="0" y1="0" x2="1" y2="1">
      <stop offset="0%" stop-color="#10b981"/>
      <stop offset="100%" stop-color="#0d9488"/>
    </linearGradient>
  </defs>
  <rect width="192" height="192" rx="40" fill="url(#bg)"/>
  <!-- Maple leaf simplified -->
  <g transform="translate(96,90) scale(2.2)" fill="white">
    <path d="M0-25 L3-15 L12-18 L8-10 L15-5 L8-3 L10,5 L4,3 L0,12 L-4,3 L-10,5 L-8,-3 L-15,-5 L-8,-10 L-12,-18 L-3,-15 Z"/>
    <rect x="-1.5" y="10" width="3" height="10" rx="1"/>
  </g>
  <!-- Chart line -->
  <polyline points="40,140 65,125 80,132 100,110 120,118 140,100 155,108" fill="none" stroke="white" stroke-width="4" stroke-linecap="round" stroke-linejoin="round" opacity="0.8"/>
  <circle cx="155" cy="108" r="4" fill="white" opacity="0.8"/>
</svg>
